<svg xmlns="http://www.w3.org/2000/svg" width="36" height="36" viewBox="0 0 36 36">
  <path id="github-brands" d="M12.041,36.987c0,.149-.167.268-.377.268-.24.022-.406-.1-.406-.268,0-.149.167-.268.377-.268C11.852,36.7,12.041,36.816,12.041,36.987Zm-2.257-.335c-.051.149.094.32.312.365a.337.337,0,0,0,.45-.149c.044-.149-.094-.32-.312-.387A.369.369,0,0,0,9.784,36.652Zm3.208-.127c-.21.052-.356.194-.334.365.022.149.21.246.428.194s.356-.194.334-.342S13.2,36.5,12.992,36.526ZM17.768,8C7.7,8,0,15.839,0,26.163A18.635,18.635,0,0,0,12.3,43.97c.929.171,1.256-.417,1.256-.9,0-.462-.022-3.007-.022-4.571,0,0-5.081,1.117-6.148-2.218,0,0-.827-2.166-2.018-2.725,0,0-1.662-1.169.116-1.146a3.816,3.816,0,0,1,2.8,1.921,3.783,3.783,0,0,0,5.291,1.556,4.178,4.178,0,0,1,1.161-2.509c-4.057-.462-8.151-1.064-8.151-8.226A5.716,5.716,0,0,1,8.3,20.767a7.2,7.2,0,0,1,.189-5.055c1.517-.484,5.008,2.01,5.008,2.01a16.734,16.734,0,0,1,9.116,0s3.491-2.5,5.008-2.01a7.2,7.2,0,0,1,.189,5.055,5.854,5.854,0,0,1,1.873,4.385c0,7.184-4.275,7.757-8.332,8.226a4.463,4.463,0,0,1,1.234,3.454c0,2.509-.022,5.613-.022,6.223,0,.484.334,1.072,1.256.9C31.079,41.483,36,34.419,36,26.163A18.014,18.014,0,0,0,17.768,8ZM7.055,33.675c-.094.074-.073.246.051.387.116.119.283.171.377.074.094-.074.073-.246-.051-.387C7.316,33.63,7.149,33.578,7.055,33.675Zm-.784-.6c-.051.1.022.216.167.29a.213.213,0,0,0,.312-.052c.051-.1-.022-.216-.167-.29C6.438,32.975,6.322,33,6.271,33.072Zm2.352,2.65c-.116.1-.073.32.094.462.167.171.377.194.472.074.094-.1.051-.32-.094-.462C8.935,35.625,8.717,35.6,8.623,35.722ZM7.8,34.627c-.116.074-.116.268,0,.439s.312.246.406.171a.346.346,0,0,0,0-.462C8.1,34.605,7.911,34.531,7.8,34.627Z" transform="translate(0 -8)" fill="#000"/>
</svg>
