<svg xmlns="http://www.w3.org/2000/svg" width="815.631" height="902.402" viewBox="0 0 815.631 902.402"><g transform="translate(-395.482)"><ellipse cx="188.689" cy="188.689" rx="188.689" ry="188.689" transform="translate(833.734 525.023)" fill="#f2f2f2"/><path d="M514.1,910.373A398.682,398.682,0,1,0,232.192,793.6,398.683,398.683,0,0,0,514.1,910.373Zm0-794.32c218.156,0,395.639,177.482,395.639,395.639S732.258,907.33,514.1,907.33,118.465,729.846,118.465,511.69,295.948,116.052,514.1,116.052Z" transform="translate(280.068 -112.967)" fill="#2f2e41"/><path d="M154.049,481.868l.045.023,196.5,109.416,215.17-107.585,3.708-1.854L558.3,258.524,363.993,120.05l-2.145,1.341-201.1,125.966Z" transform="translate(432.412 43.045)"/><path d="M156.779,421.219l196.5,109.416L568.447,423.05l-190.6-133.626Z" transform="translate(429.726 103.717)" opacity="0.3"/><path d="M297.112,481.514,518.223,349.742,504.911,121.037,303.812,247Z" transform="translate(289.349 43.399)" opacity="0.1"/><path d="M562.3,309.728l1.092-1.546L366.913,169.5,159.361,299.629l1.005,1.6L366.852,171.772Z" transform="translate(431.275 60.759)" fill="#f2f2f2"/><path d="M563.5,364.025l1.062-1.565L369.082,229.743l-.512.291L156.579,350.181l.934,1.646L368.992,231.969Z" transform="translate(433.882 82.338)" fill="#f2f2f2"/><path d="M409.45,510.307l1-1.608L213.434,386.622V152.594h-1.892V387.676Z" transform="translate(513.347 54.703)" fill="#f2f2f2"/><path d="M459.056,537.4l1.005-1.6-189.7-118.983V184.879h-1.892V417.862Z" transform="translate(386.414 66.268)" fill="#f2f2f2"/><path d="M246.1,509.01,466.718,386.428l-.031-.589L455.073,156.281l-1.889.1,11.584,228.969L245.176,507.355Z" transform="translate(411.394 56.023)" fill="#f2f2f2"/><path d="M196.774,535.338,414.919,421.021l-.034-.607-12.86-229.672-1.889.106L412.96,419.912,195.895,533.662Z" transform="translate(530.127 68.368)" fill="#f2f2f2"/><circle cx="76.084" cy="76.084" r="76.084" transform="translate(473.095 10.694)" fill="#3f3d56"/><rect width="771.502" height="1.794" transform="translate(395.482 899.983)" fill="#2f2e41"/></g></svg>