<svg xmlns="http://www.w3.org/2000/svg" width="784.207" height="867.634" viewBox="0 0 784.207 867.634">
  <g id="undraw_solution_mindset_34bi" transform="translate(-395.482)">
    <ellipse id="Ellipse_2" data-name="Ellipse 2" cx="181.42" cy="181.42" rx="181.42" ry="181.42" transform="translate(816.849 504.795)" fill="#f2f2f2"/>
    <path id="Path_14" data-name="Path 14" d="M498.742,879.65A383.322,383.322,0,1,0,227.693,767.378,383.322,383.322,0,0,0,498.742,879.65Zm0-763.716c209.751,0,380.4,170.643,380.4,380.4s-170.645,380.4-380.4,380.4-380.394-170.646-380.394-380.4,170.645-380.4,380.394-380.4Z" transform="translate(280.068 -112.967)" fill="#2f2e41"/>
    <path id="Path_15" data-name="Path 15" d="M154.049,467.928l.043.022,188.927,105.2L549.9,469.71l3.565-1.783L542.728,253.189,355.9,120.05l-2.062,1.289L160.491,242.452Z" transform="translate(425.054 36.761)"/>
    <path id="Path_16" data-name="Path 16" d="M156.779,416.141l188.927,105.2L552.586,417.9,369.328,289.424Z" transform="translate(422.367 88.57)" opacity="0.3"/>
    <path id="Path_17" data-name="Path 17" d="M297.112,467.626,509.7,340.93l-12.8-219.893L303.554,242.15Z" transform="translate(281.991 37.063)" opacity="0.1"/>
    <path id="Path_18" data-name="Path 18" d="M546.776,304.326l1.05-1.486L358.917,169.5,159.361,294.615l.966,1.542L358.858,171.685Z" transform="translate(423.756 51.887)" fill="#f2f2f2"/>
    <path id="Path_19" data-name="Path 19" d="M547.824,358.852l1.021-1.5-187.95-127.6-.492.279L156.579,345.541l.9,1.583,203.331-115.24Z" transform="translate(426.369 70.314)" fill="#f2f2f2"/>
    <path id="Path_20" data-name="Path 20" d="M401.825,496.525l.958-1.546L213.361,377.605V152.594h-1.819V378.618Z" transform="translate(500.656 46.716)" fill="#f2f2f2"/>
    <path id="Path_21" data-name="Path 21" d="M451.713,523.819l.966-1.541-182.391-114.4v-223h-1.819V408.886Z" transform="translate(376.42 56.591)" fill="#f2f2f2"/>
    <path id="Path_22" data-name="Path 22" d="M246.06,495.42,458.182,377.561l-.03-.567L446.986,156.281l-1.817.093,11.138,220.147L245.176,493.829Z" transform="translate(401.335 47.844)" fill="#f2f2f2"/>
    <path id="Path_23" data-name="Path 23" d="M196.74,522.061,406.48,412.149l-.033-.584L394.083,190.742l-1.816.1L404.6,411.082,195.895,520.45Z" transform="translate(517.392 58.385)" fill="#f2f2f2"/>
    <circle id="Ellipse_3" data-name="Ellipse 3" cx="73.153" cy="73.153" r="73.153" transform="translate(470.105 10.282)" fill="#3f3d56"/>
    <rect id="Rectangle_53" data-name="Rectangle 53" width="784.207" height="1.725" transform="translate(395.482 865.308)" fill="#2f2e41"/>
  </g>
</svg>
