<svg xmlns="http://www.w3.org/2000/svg" width="128" height="128" viewBox="0 0 128 128">
  <g id="Favicon" transform="translate(-10699 -801)">
    <g id="Ellipse_1" data-name="Ellipse 1" transform="translate(10699 801)" fill="none" stroke="#e63946" stroke-width="6">
      <circle cx="64" cy="64" r="64" stroke="none"/>
      <circle cx="64" cy="64" r="61" fill="none"/>
    </g>
    <path id="Path_13" data-name="Path 13" d="M-11.73-61.364-19.274,0H.966c9.384,0,14.628-1.932,18.4-5.888a18.5,18.5,0,0,0,4.968-13.248,12.731,12.731,0,0,0-3.312-9.108,17.269,17.269,0,0,0-7.268-4.508,11.617,11.617,0,0,0,5.98-4.692,14.342,14.342,0,0,0,2.576-8.924c0-3.68-.736-7.36-3.956-10.488C14.214-60.9,8.6-61.364,3.45-61.364ZM-.966-51.612H1.978c1.656,0,4.232.092,6.256,1.564A6.63,6.63,0,0,1,10.9-44.436a8.707,8.707,0,0,1-2.3,5.8c-2.3,2.392-5.428,2.76-8.924,2.76H-2.9ZM-4-26.68H.414c3.036,0,7.452.46,9.752,2.668a7.665,7.665,0,0,1,2.024,5.428A8.664,8.664,0,0,1,9.8-12.328c-2.392,2.3-6.44,2.576-10.764,2.576H-6.118Z" transform="translate(10763 896)" fill="#e63946"/>
  </g>
</svg>
